# xmcd
#
# Track frame offsets:
#	150
#	13612
#	28085
#	45705
#	61707
#	74302
#	93217
#	108055
#	124872
#	142312
#	156977
#
# Disc length: 2344 seconds
#
# Revision: 0
# Processed by: cddbd v1.5.1PL2 Copyright (c) Steve Scherf et al.
# Submitted via: audiograbber 1.83.01
#
DISCID=9109260b
DTITLE=сайгс  яоубас  - тыяа аявифоум та дусйока 
DYEAR=1996
DGENRE=екк POP
TTITLE0=тыяа аявифоум та дусйока 
TTITLE1=асе ле ма жуцы
TTITLE2=лг л╢ацапгсеис
TTITLE3=ажгсте тгм
TTITLE4=пыс та йатажеяес
TTITLE5=йапоте ха ╢ласте лафи
TTITLE6=поу йаи поте
TTITLE7=диажояетийос
TTITLE8=еилаи валемос
TTITLE9=дыс╢лоу
TTITLE10=де ха се невасы
EXTD=
EXTT0=
EXTT1=
EXTT2=
EXTT3=
EXTT4=
EXTT5=
EXTT6=
EXTT7=
EXTT8=
EXTT9=
EXTT10=
PLAYORDER=
